<svg xmlns="http://www.w3.org/2000/svg" width="48" height="48" viewBox="0 0 48 48">
  <g id="ic_weather_6" transform="translate(574 1175)">
    <rect id="Rectangle_7" data-name="Rectangle 7" width="48" height="48" transform="translate(-574 -1175)" fill="#ffd2d2" opacity="0"/>
    <g id="Group_163" data-name="Group 163" transform="translate(-2.93 -3.75)">
      <path id="Path_165" data-name="Path 165" d="M298.562,368.519a12.4,12.4,0,0,1-7.842,7.116,7.378,7.378,0,0,0-1.365-2.566,7.879,7.879,0,0,0-1.539-1.462,8.995,8.995,0,0,0-5.306-1.7,8.469,8.469,0,0,0-.881,0v-.1a7.833,7.833,0,0,0-5.306-7.223,8.789,8.789,0,0,0-1.462-.416,12.345,12.345,0,0,1,9.227-10.418,12.5,12.5,0,0,0,14.475,16.769Z" transform="translate(-822.632 -1522)" fill="none" stroke="#EBA53C" stroke-linecap="round" stroke-linejoin="round" stroke-width="2"/>
      <path id="Path_166" data-name="Path 166" d="M290.3,378.055c0,4.309-3.873,7.813-8.52,7.813H260.36a8.52,8.52,0,0,1-8.452-7.339,7.46,7.46,0,0,1-.077-1.142,8.511,8.511,0,0,1,8.53-8.482,8.413,8.413,0,0,1,3.5.755c.3-4.067,4.008-7.281,8.511-7.281a9.217,9.217,0,0,1,3.224.591,7.833,7.833,0,0,1,5.306,7.223v.1a8.468,8.468,0,0,1,.881,0,8.995,8.995,0,0,1,5.306,1.7,7.88,7.88,0,0,1,1.539,1.462,7.378,7.378,0,0,1,1.365,2.566,7.077,7.077,0,0,1,.31,2.033Z" transform="translate(-821.9 -1522.338)" fill="none" stroke="#EBA53C" stroke-linecap="round" stroke-linejoin="round" stroke-width="2"/>
      <g id="Group_154" data-name="Group 154" transform="translate(-555.479 -1135.084)">
        <line id="Line_199" data-name="Line 199" y2="8.162" transform="translate(4.551 1.936)" stroke-dasharray="1 5" stroke="#EBA53C" stroke-linecap="round" stroke-linejoin="round" stroke-width="2" fill="none"/>
        <line id="Line_200" data-name="Line 200" y2="8.162" transform="translate(9.082)" stroke-dasharray="1 5" stroke="#EBA53C" stroke-linecap="round" stroke-linejoin="round" stroke-width="2" fill="none"/>
        <line id="Line_201" data-name="Line 201" y2="8.162" stroke-dasharray="1 5" stroke="#EBA53C" stroke-linecap="round" stroke-linejoin="round" stroke-width="2" fill="none"/>
      </g>
    </g>
  </g>
</svg>
