<svg xmlns="http://www.w3.org/2000/svg" width="48" height="48" viewBox="0 0 48 48">
  <g id="ic_weather_37" transform="translate(476 685)">
    <rect id="Rectangle_7" data-name="Rectangle 7" width="48" height="48" transform="translate(-476 -685)" fill="#ffd2d2" opacity="0"/>
    <g id="Group_51" data-name="Group 51" transform="translate(27.42 -13.76)">
      <line id="Line_143" data-name="Line 143" y2="12.16" transform="translate(-488.09 -641.37)" fill="none" stroke="#EBA53C" stroke-linecap="round" stroke-linejoin="round" stroke-width="2"/>
      <line id="Line_144" data-name="Line 144" y2="10.68" transform="translate(-483.5 -638.41)" fill="none" stroke="#EBA53C" stroke-linecap="round" stroke-linejoin="round" stroke-width="2"/>
      <path id="Path_97" data-name="Path 97" d="M393.21,871.94c0,4.45-4,8.07-8.8,8.07H362.29a8.8,8.8,0,0,1-8.73-7.58,7.9,7.9,0,0,1-.08-1.18,8.79,8.79,0,0,1,8.81-8.75,8.68,8.68,0,0,1,3.61.77c.31-4.2,4.14-7.51,8.79-7.51a9.282,9.282,0,0,1,3.33.61,8.09,8.09,0,0,1,5.47,7.46v.1a8.891,8.891,0,0,1,.91,0,9.28,9.28,0,0,1,5.48,1.75,8,8,0,0,1,1.59,1.51A7.6,7.6,0,0,1,393.21,871.94Z" transform="translate(-852.9 -1522)" fill="none" stroke="#EBA53C" stroke-linecap="round" stroke-linejoin="round" stroke-width="2"/>
      <path id="Path_98" data-name="Path 98" d="M365.81,879.95s9.47.13,14.56,0c4.61-.12,5.79-4.43,4.61-6.36s-5.41-1.06-4.18,2.37" transform="translate(-852.9 -1522)" fill="none" stroke="#EBA53C" stroke-linecap="round" stroke-linejoin="round" stroke-width="2"/>
      <path id="Path_99" data-name="Path 99" d="M373.87,886.71h6.5c2.92,0,4.73,1.7,4.31,3.41" transform="translate(-852.9 -1522)" fill="none" stroke="#EBA53C" stroke-linecap="round" stroke-linejoin="round" stroke-width="2"/>
      <path id="Path_100" data-name="Path 100" d="M373.29,883.63s7.62-.1,14,0c3.42.05,4.87,2,4.87,3.77a4.62,4.62,0,0,1-2.62,4.17" transform="translate(-852.9 -1522)" fill="none" stroke="#EBA53C" stroke-linecap="round" stroke-linejoin="round" stroke-width="2"/>
    </g>
  </g>
</svg>
