<svg xmlns="http://www.w3.org/2000/svg" width="48" height="48" viewBox="0 0 48 48">
  <g id="ic_weather_56" transform="translate(378 391)">
    <rect id="Rectangle_7" data-name="Rectangle 7" width="48" height="48" transform="translate(-378 -391)" fill="#ffd2d2" opacity="0"/>
    <g id="Group_69" data-name="Group 69" transform="translate(26.05 -18.31)">
      <path id="Path_120" data-name="Path 120" d="M489.248,1164.578a6.683,6.683,0,0,1-2.979,5.486,8.746,8.746,0,0,0-5.166-1.65,8.412,8.412,0,0,0-.858,0v-.094a7.626,7.626,0,0,0-5.156-7.032,7.635,7.635,0,0,1,6.6-3.639C485.874,1157.725,489.248,1160.808,489.248,1164.578Z" transform="translate(-854.348 -1522.421)" fill="none" stroke="#EBA53C" stroke-linecap="round" stroke-linejoin="round" stroke-width="2"/>
      <line id="Line_166" data-name="Line 166" y2="3.261" transform="translate(-372.631 -371.69)" fill="none" stroke="#EBA53C" stroke-linecap="round" stroke-linejoin="round" stroke-width="2"/>
      <line id="Line_167" data-name="Line 167" x2="2.517" y2="2.3" transform="translate(-383.349 -367.618)" fill="none" stroke="#EBA53C" stroke-linecap="round" stroke-linejoin="round" stroke-width="2"/>
      <line id="Line_168" data-name="Line 168" x2="2.507" y2="2.3" transform="translate(-363.158 -350.735)" fill="none" stroke="#EBA53C" stroke-linecap="round" stroke-linejoin="round" stroke-width="2"/>
      <line id="Line_169" data-name="Line 169" x2="3.554" transform="translate(-361.018 -357.805)" fill="none" stroke="#EBA53C" stroke-linecap="round" stroke-linejoin="round" stroke-width="2"/>
      <line id="Line_170" data-name="Line 170" y1="2.3" x2="2.517" transform="translate(-364.421 -367.618)" fill="none" stroke="#EBA53C" stroke-linecap="round" stroke-linejoin="round" stroke-width="2"/>
      <line id="Line_171" data-name="Line 171" y2="0.471" transform="translate(-393.586 -338.557)" fill="none" stroke="#EBA53C" stroke-linecap="round" stroke-linejoin="round" stroke-width="2"/>
      <line id="Line_172" data-name="Line 172" y2="3.346" transform="translate(-393.586 -333.297)" stroke-dasharray="1.02 5.08" stroke="#EBA53C" stroke-linecap="round" stroke-linejoin="round" stroke-width="2" fill="none"/>
      <line id="Line_173" data-name="Line 173" y2="0.471" transform="translate(-393.586 -327.556)" fill="none" stroke="#EBA53C" stroke-linecap="round" stroke-linejoin="round" stroke-width="2"/>
      <line id="Line_174" data-name="Line 174" y2="0.471" transform="translate(-389.259 -335.767)" fill="none" stroke="#EBA53C" stroke-linecap="round" stroke-linejoin="round" stroke-width="2"/>
      <line id="Line_175" data-name="Line 175" y2="2.903" transform="translate(-389.259 -331.138)" stroke-dasharray="0.88 4.4" stroke="#EBA53C" stroke-linecap="round" stroke-linejoin="round" stroke-width="2" fill="none"/>
      <line id="Line_176" data-name="Line 176" y2="0.471" transform="translate(-389.259 -326.161)" fill="none" stroke="#EBA53C" stroke-linecap="round" stroke-linejoin="round" stroke-width="2"/>
      <path id="Path_121" data-name="Path 121" d="M487.3,1175.852c0,4.195-3.771,7.607-8.3,7.607H458.155a8.3,8.3,0,0,1-8.229-7.145,7.445,7.445,0,0,1-.075-1.112,8.286,8.286,0,0,1,8.3-8.248,8.18,8.18,0,0,1,3.4.726c.292-3.959,3.9-7.079,8.286-7.079a8.746,8.746,0,0,1,3.139.575,7.626,7.626,0,0,1,5.156,7.032v.094a8.448,8.448,0,0,1,.858,0,8.746,8.746,0,0,1,5.166,1.65,7.541,7.541,0,0,1,1.5,1.423,7.164,7.164,0,0,1,1.64,4.478Z" transform="translate(-852.9 -1522.59)" fill="none" stroke="#EBA53C" stroke-linecap="round" stroke-linejoin="round" stroke-width="2"/>
      <path id="Path_122" data-name="Path 122" d="M462.18,1184.367s8.927.123,13.725,0c4.345-.113,5.458-4.176,4.345-6s-5.1-1-3.94,2.234" transform="translate(-853.607 -1523.556)" fill="none" stroke="#EBA53C" stroke-linecap="round" stroke-linejoin="round" stroke-width="2"/>
      <path id="Path_123" data-name="Path 123" d="M470.24,1191.55h6.127c2.752,0,4.459,1.6,4.063,3.214" transform="translate(-854.07 -1524.366)" fill="none" stroke="#EBA53C" stroke-linecap="round" stroke-linejoin="round" stroke-width="2"/>
      <path id="Path_124" data-name="Path 124" d="M469.66,1188.477s7.183-.094,13.2,0c3.224.047,4.591,1.885,4.591,3.554a4.355,4.355,0,0,1-2.47,3.931" transform="translate(-854.036 -1524.188)" fill="none" stroke="#EBA53C" stroke-linecap="round" stroke-linejoin="round" stroke-width="2"/>
    </g>
  </g>
</svg>
