<svg xmlns="http://www.w3.org/2000/svg" width="48" height="48.388" viewBox="0 0 48 48.388">
  <g id="ic_weather_23" transform="translate(672 881)">
    <rect id="Rectangle_7" data-name="Rectangle 7" width="48" height="48" transform="translate(-672 -881)" fill="#ffd2d2" opacity="0"/>
    <g id="Group_39" data-name="Group 39" transform="translate(31.51 -9.59)">
      <path id="Path_154" data-name="Path 154" d="M188.544,677.808c0,4.273-3.841,7.75-8.451,7.75H158.851a8.451,8.451,0,0,1-8.384-7.279,7.588,7.588,0,0,1-.077-1.133,8.441,8.441,0,0,1,8.461-8.413,8.335,8.335,0,0,1,3.467.739c.3-4.033,3.976-7.212,8.441-7.212a8.913,8.913,0,0,1,3.2.586,7.769,7.769,0,0,1,5.253,7.164v.1a8.536,8.536,0,0,1,.874,0,8.912,8.912,0,0,1,5.263,1.681,7.681,7.681,0,0,1,1.527,1.45,7.3,7.3,0,0,1,1.671,4.571Z" transform="translate(-852.9 -1522.423)" fill="none" stroke="#EBA53C" stroke-linecap="round" stroke-linejoin="round" stroke-width="2"/>
      <path id="Path_155" data-name="Path 155" d="M189.4,666.028a6.809,6.809,0,0,1-3.035,5.589,8.912,8.912,0,0,0-5.263-1.681,8.553,8.553,0,0,0-.874,0v-.1a7.769,7.769,0,0,0-5.253-7.164,7.779,7.779,0,0,1,6.722-3.707C185.928,659,189.4,662.149,189.4,666.028Z" transform="translate(-853.875 -1522.293)" fill="none" stroke="#EBA53C" stroke-linecap="round" stroke-linejoin="round" stroke-width="2"/>
      <line id="Line_218" data-name="Line 218" y2="3.313" transform="translate(-672.182 -870.41)" fill="none" stroke="#EBA53C" stroke-linecap="round" stroke-linejoin="round" stroke-width="2"/>
      <line id="Line_219" data-name="Line 219" x2="2.564" y2="2.343" transform="translate(-683.101 -866.261)" fill="none" stroke="#EBA53C" stroke-linecap="round" stroke-linejoin="round" stroke-width="2"/>
      <line id="Line_220" data-name="Line 220" x2="2.564" y2="2.343" transform="translate(-662.541 -849.062)" fill="none" stroke="#EBA53C" stroke-linecap="round" stroke-linejoin="round" stroke-width="2"/>
      <line id="Line_221" data-name="Line 221" x2="3.62" transform="translate(-660.351 -856.264)" fill="none" stroke="#EBA53C" stroke-linecap="round" stroke-linejoin="round" stroke-width="2"/>
      <line id="Line_222" data-name="Line 222" y1="2.343" x2="2.564" transform="translate(-663.818 -866.261)" fill="none" stroke="#EBA53C" stroke-linecap="round" stroke-linejoin="round" stroke-width="2"/>
      <path id="Path_156" data-name="Path 156" d="M110.666,687l-3.976,5.944h4.062l-4.062,6.05" transform="translate(-800.365 -1523.405)" fill="none" stroke="#EBA53C" stroke-linecap="round" stroke-linejoin="round" stroke-width="2"/>
      <line id="Line_223" data-name="Line 223" x1="6.137" y2="10.391" transform="translate(-681.719 -836.424)" fill="none" stroke="#EBA53C" stroke-linecap="round" stroke-linejoin="round" stroke-width="2"/>
      <line id="Line_224" data-name="Line 224" x1="5.349" y2="8.922" transform="translate(-687.788 -833.639)" fill="none" stroke="#EBA53C" stroke-linecap="round" stroke-linejoin="round" stroke-width="2"/>
    </g>
  </g>
</svg>
