<svg xmlns="http://www.w3.org/2000/svg" width="48" height="48" viewBox="0 0 48 48">
  <g id="ic_weather_34" transform="translate(770 685)">
    <rect id="Rectangle_7" data-name="Rectangle 7" width="48" height="48" transform="translate(-770 -685)" fill="#ffd2d2" opacity="0"/>
    <g id="Group_48" data-name="Group 48" transform="translate(32.09 -13.76)">
      <line id="Line_120" data-name="Line 120" x1="0.25" y2="0.42" transform="translate(-787.02 -641.37)" fill="none" stroke="#EBA53C" stroke-linecap="round" stroke-linejoin="round" stroke-width="2"/>
      <line id="Line_121" data-name="Line 121" x1="1.87" y2="3.11" transform="translate(-791.57 -636.49)" stroke-dasharray="1.04 5.19" stroke="#EBA53C" stroke-linecap="round" stroke-linejoin="round" stroke-width="2" fill="none"/>
      <line id="Line_122" data-name="Line 122" x1="0.26" y2="0.42" transform="translate(-793.16 -631.15)" fill="none" stroke="#EBA53C" stroke-linecap="round" stroke-linejoin="round" stroke-width="2"/>
      <line id="Line_123" data-name="Line 123" x1="0.26" y2="0.43" transform="translate(-782.44 -638.41)" fill="none" stroke="#EBA53C" stroke-linecap="round" stroke-linejoin="round" stroke-width="2"/>
      <line id="Line_124" data-name="Line 124" x1="1.61" y2="2.66" transform="translate(-786.36 -634.2)" stroke-dasharray="0.89 4.44" stroke="#EBA53C" stroke-linecap="round" stroke-linejoin="round" stroke-width="2" fill="none"/>
      <line id="Line_125" data-name="Line 125" x1="0.26" y2="0.43" transform="translate(-787.78 -629.65)" fill="none" stroke="#EBA53C" stroke-linecap="round" stroke-linejoin="round" stroke-width="2"/>
      <path id="Path_83" data-name="Path 83" d="M94.54,871.94c0,4.45-4,8.07-8.8,8.07H63.62a8.8,8.8,0,0,1-8.73-7.58,7.9,7.9,0,0,1-.08-1.18,8.79,8.79,0,0,1,8.81-8.75,8.68,8.68,0,0,1,3.61.77c.31-4.2,4.14-7.51,8.79-7.51a9.282,9.282,0,0,1,3.33.61,8.09,8.09,0,0,1,5.47,7.46v.1a8.891,8.891,0,0,1,.91,0,9.28,9.28,0,0,1,5.48,1.75,8,8,0,0,1,1.59,1.51,7.6,7.6,0,0,1,1.74,4.75Z" transform="translate(-852.9 -1522)" fill="none" stroke="#EBA53C" stroke-linecap="round" stroke-linejoin="round" stroke-width="2"/>
      <path id="Path_84" data-name="Path 84" d="M67.14,879.95s9.47.13,14.56,0c4.61-.12,5.79-4.43,4.61-6.36s-5.41-1.06-4.18,2.37" transform="translate(-852.9 -1522)" fill="none" stroke="#EBA53C" stroke-linecap="round" stroke-linejoin="round" stroke-width="2"/>
      <path id="Path_85" data-name="Path 85" d="M75.2,886.71h6.5c2.92,0,4.73,1.7,4.31,3.41" transform="translate(-852.9 -1522)" fill="none" stroke="#EBA53C" stroke-linecap="round" stroke-linejoin="round" stroke-width="2"/>
      <path id="Path_86" data-name="Path 86" d="M74.61,883.63s7.62-.1,14,0c3.42.05,4.87,2,4.87,3.77a4.62,4.62,0,0,1-2.62,4.17" transform="translate(-852.9 -1522)" fill="none" stroke="#EBA53C" stroke-linecap="round" stroke-linejoin="round" stroke-width="2"/>
    </g>
  </g>
</svg>
