<svg xmlns="http://www.w3.org/2000/svg" width="48" height="48" viewBox="0 0 48 48">
  <g id="ic_weather_16" transform="translate(770 979)">
    <rect id="Rectangle_7" data-name="Rectangle 7" width="48" height="48" transform="translate(-770 -979)" fill="#ffd2d2" opacity="0"/>
    <g id="Group_32" data-name="Group 32" transform="translate(32.26 -7.21)">
      <path id="Path_22" data-name="Path 22" d="M19.3,580.88l-4.14,6.09h4.22l-4.22,6.21" transform="translate(-800 -1522)" fill="none" stroke="#EBA53C" stroke-linecap="round" stroke-linejoin="round" stroke-width="2"/>
      <path id="Path_23" data-name="Path 23" d="M26.92,580.83l-4.14,6.09H27l-4.22,6.2" transform="translate(-800 -1522)" fill="none" stroke="#EBA53C" stroke-linecap="round" stroke-linejoin="round" stroke-width="2"/>
      <path id="Path_24" data-name="Path 24" d="M94.38,572.39c0,4.45-4,8.07-8.8,8.07H63.45a8.8,8.8,0,0,1-8.73-7.58,7.9,7.9,0,0,1-.08-1.18,8.79,8.79,0,0,1,8.81-8.75,8.678,8.678,0,0,1,3.61.77c.31-4.2,4.14-7.51,8.79-7.51a9.279,9.279,0,0,1,3.33.61,8.09,8.09,0,0,1,5.47,7.46v.1a8.909,8.909,0,0,1,.91,0,9.28,9.28,0,0,1,5.48,1.75,8,8,0,0,1,1.59,1.51A7.6,7.6,0,0,1,94.38,572.39Z" transform="translate(-852.9 -1522)" fill="none" stroke="#EBA53C" stroke-linecap="round" stroke-linejoin="round" stroke-width="2"/>
    </g>
  </g>
</svg>
