<svg xmlns="http://www.w3.org/2000/svg" width="48" height="48" viewBox="0 0 48 48">
  <g id="ic_weather_35" transform="translate(672 685)">
    <rect id="Rectangle_7" data-name="Rectangle 7" width="48" height="48" transform="translate(-672 -685)" fill="#ffd2d2" opacity="0"/>
    <g id="Group_49" data-name="Group 49" transform="translate(30.77 -12.82)">
      <path id="Path_92" data-name="Path 92" d="M190.657,865.191a6.744,6.744,0,0,1-3.006,5.536,8.827,8.827,0,0,0-5.213-1.665,8.443,8.443,0,0,0-.866,0v-.1a7.7,7.7,0,0,0-5.2-7.1,7.7,7.7,0,0,1,6.658-3.672C187.252,858.238,190.657,861.348,190.657,865.191Z" transform="translate(-854.132 -1522.36)" fill="none" stroke="#EBA53C" stroke-linecap="round" stroke-linejoin="round" stroke-width="2"/>
      <line id="Line_132" data-name="Line 132" y2="3.282" transform="translate(-671.075 -671.18)" fill="none" stroke="#EBA53C" stroke-linecap="round" stroke-linejoin="round" stroke-width="2"/>
      <line id="Line_133" data-name="Line 133" x2="2.54" y2="2.321" transform="translate(-681.89 -667.08)" fill="none" stroke="#EBA53C" stroke-linecap="round" stroke-linejoin="round" stroke-width="2"/>
      <line id="Line_134" data-name="Line 134" x2="2.54" y2="2.321" transform="translate(-661.525 -650.035)" fill="none" stroke="#EBA53C" stroke-linecap="round" stroke-linejoin="round" stroke-width="2"/>
      <line id="Line_135" data-name="Line 135" x2="3.586" transform="translate(-659.356 -657.169)" fill="none" stroke="#EBA53C" stroke-linecap="round" stroke-linejoin="round" stroke-width="2"/>
      <line id="Line_136" data-name="Line 136" y1="2.321" x2="2.54" transform="translate(-662.79 -667.08)" fill="none" stroke="#EBA53C" stroke-linecap="round" stroke-linejoin="round" stroke-width="2"/>
      <line id="Line_137" data-name="Line 137" x1="0.247" y2="0.409" transform="translate(-691.24 -637.746)" fill="none" stroke="#EBA53C" stroke-linecap="round" stroke-linejoin="round" stroke-width="2"/>
      <line id="Line_138" data-name="Line 138" x1="1.779" y2="2.968" transform="translate(-695.558 -633.104)" stroke-dasharray="1.04 5.19" stroke="#EBA53C" stroke-linecap="round" stroke-linejoin="round" stroke-width="2" fill="none"/>
      <line id="Line_139" data-name="Line 139" x1="0.247" y2="0.409" transform="translate(-697.08 -628.024)" fill="none" stroke="#EBA53C" stroke-linecap="round" stroke-linejoin="round" stroke-width="2"/>
      <line id="Line_140" data-name="Line 140" x1="0.247" y2="0.4" transform="translate(-686.884 -634.92)" fill="none" stroke="#EBA53C" stroke-linecap="round" stroke-linejoin="round" stroke-width="2"/>
      <line id="Line_141" data-name="Line 141" x1="1.541" y2="2.53" transform="translate(-690.612 -630.916)" stroke-dasharray="0.89 4.44" stroke="#EBA53C" stroke-linecap="round" stroke-linejoin="round" stroke-width="2" fill="none"/>
      <line id="Line_142" data-name="Line 142" x1="0.247" y2="0.409" transform="translate(-691.963 -626.588)" fill="none" stroke="#EBA53C" stroke-linecap="round" stroke-linejoin="round" stroke-width="2"/>
      <path id="Path_93" data-name="Path 93" d="M188.921,876.5c0,4.233-3.8,7.676-8.37,7.676H159.51a8.37,8.37,0,0,1-8.3-7.21,7.514,7.514,0,0,1-.076-1.122,8.361,8.361,0,0,1,8.38-8.323,8.256,8.256,0,0,1,3.434.732c.295-3.995,3.938-7.143,8.361-7.143a8.828,8.828,0,0,1,3.167.58,7.7,7.7,0,0,1,5.2,7.1v.1a8.46,8.46,0,0,1,.866,0,8.828,8.828,0,0,1,5.213,1.665,7.611,7.611,0,0,1,1.512,1.436,7.229,7.229,0,0,1,1.655,4.518Z" transform="translate(-852.9 -1522.502)" fill="none" stroke="#EBA53C" stroke-linecap="round" stroke-linejoin="round" stroke-width="2"/>
      <path id="Path_94" data-name="Path 94" d="M163.46,884.94s9.008.124,13.849,0c4.385-.114,5.507-4.214,4.385-6.05s-5.146-1.008-3.976,2.254" transform="translate(-853.502 -1523.323)" fill="none" stroke="#EBA53C" stroke-linecap="round" stroke-linejoin="round" stroke-width="2"/>
      <path id="Path_95" data-name="Path 95" d="M171.52,892.05h6.164c2.777,0,4.5,1.617,4.1,3.244" transform="translate(-853.895 -1524.012)" fill="none" stroke="#EBA53C" stroke-linecap="round" stroke-linejoin="round" stroke-width="2"/>
      <path id="Path_96" data-name="Path 96" d="M170.94,889s7.248-.1,13.317,0c3.253.048,4.632,1.9,4.632,3.586a4.395,4.395,0,0,1-2.492,3.966" transform="translate(-853.867 -1523.861)" fill="none" stroke="#EBA53C" stroke-linecap="round" stroke-linejoin="round" stroke-width="2"/>
    </g>
  </g>
</svg>
