<svg xmlns="http://www.w3.org/2000/svg" width="48" height="48.002" viewBox="0 0 48 48.002">
  <g id="ic_weather_47" transform="translate(672 489)">
    <rect id="Rectangle_7" data-name="Rectangle 7" width="48" height="48" transform="translate(-672 -489)" fill="#ffd2d2" opacity="0"/>
    <g id="Group_61" data-name="Group 61" transform="translate(30.96 -15.91)">
      <path id="Path_45" data-name="Path 45" d="M189.984,1065.382a6.842,6.842,0,0,1-3.049,5.616,8.953,8.953,0,0,0-5.288-1.689,8.6,8.6,0,0,0-.878,0v-.1a7.806,7.806,0,0,0-5.278-7.2,7.816,7.816,0,0,1,6.755-3.725C186.529,1058.319,189.984,1061.484,189.984,1065.382Z" transform="translate(-853.76 -1522.259)" fill="none" stroke="#EBA53C" stroke-linecap="round" stroke-linejoin="round" stroke-width="2"/>
      <line id="Line_87" data-name="Line 87" y2="3.329" transform="translate(-671.486 -471.09)" fill="none" stroke="#EBA53C" stroke-linecap="round" stroke-linejoin="round" stroke-width="2"/>
      <line id="Line_88" data-name="Line 88" x2="2.567" y2="2.355" transform="translate(-682.458 -466.931)" fill="none" stroke="#EBA53C" stroke-linecap="round" stroke-linejoin="round" stroke-width="2"/>
      <line id="Line_89" data-name="Line 89" x2="2.576" y2="2.355" transform="translate(-661.798 -449.639)" fill="none" stroke="#EBA53C" stroke-linecap="round" stroke-linejoin="round" stroke-width="2"/>
      <line id="Line_90" data-name="Line 90" x2="3.638" transform="translate(-659.598 -456.876)" fill="none" stroke="#EBA53C" stroke-linecap="round" stroke-linejoin="round" stroke-width="2"/>
      <line id="Line_91" data-name="Line 91" y1="2.355" x2="2.576" transform="translate(-663.081 -466.931)" fill="none" stroke="#EBA53C" stroke-linecap="round" stroke-linejoin="round" stroke-width="2"/>
      <path id="Path_46" data-name="Path 46" d="M189.278,1077c0,4.294-3.86,7.787-8.492,7.787H159.441a8.492,8.492,0,0,1-8.424-7.314,7.622,7.622,0,0,1-.077-1.139,8.482,8.482,0,0,1,8.5-8.443,8.376,8.376,0,0,1,3.484.743c.3-4.053,3.995-7.247,8.482-7.247a8.952,8.952,0,0,1,3.213.589,7.806,7.806,0,0,1,5.278,7.2v.1a8.6,8.6,0,0,1,.878,0,8.954,8.954,0,0,1,5.288,1.689,7.722,7.722,0,0,1,1.534,1.457A7.334,7.334,0,0,1,189.278,1077Z" transform="translate(-852.9 -1522.367)" fill="none" stroke="#EBA53C" stroke-linecap="round" stroke-linejoin="round" stroke-width="2"/>
      <path id="Path_47" data-name="Path 47" d="M163.27,1085.322s9.138.125,14.05,0c4.448-.116,5.587-4.275,4.448-6.137s-5.22-1.023-4.034,2.287" transform="translate(-853.332 -1522.957)" fill="none" stroke="#EBA53C" stroke-linecap="round" stroke-linejoin="round" stroke-width="2"/>
      <path id="Path_48" data-name="Path 48" d="M165.71,1092.33h11.7c2.818,0,4.564,1.64,4.159,3.291" transform="translate(-853.417 -1523.451)" fill="none" stroke="#EBA53C" stroke-linecap="round" stroke-linejoin="round" stroke-width="2"/>
      <path id="Path_49" data-name="Path 49" d="M162.75,1089.258s13.143-.1,19.3,0c3.3.048,4.7,1.93,4.7,3.638a4.458,4.458,0,0,1-2.528,4.024" transform="translate(-853.314 -1523.342)" fill="none" stroke="#EBA53C" stroke-linecap="round" stroke-linejoin="round" stroke-width="2"/>
    </g>
  </g>
</svg>
