<svg xmlns="http://www.w3.org/2000/svg" width="48" height="48" viewBox="0 0 48 48">
  <g id="ic_weather_15" transform="translate(280 1077)">
    <rect id="Rectangle_7" data-name="Rectangle 7" width="48" height="48" transform="translate(-280 -1077)" fill="#ffd2d2" opacity="0"/>
    <g id="Group_26" data-name="Group 26" transform="translate(23.9 -4.12)">
      <path id="Path_171" data-name="Path 171" d="M597.1,466.443a12.072,12.072,0,0,1-7.634,6.927,7.184,7.184,0,0,0-1.329-2.5,7.67,7.67,0,0,0-1.5-1.423,8.755,8.755,0,0,0-5.165-1.659,8.269,8.269,0,0,0-.858,0V467.7a7.624,7.624,0,0,0-5.164-7.031,8.556,8.556,0,0,0-1.423-.405,12.016,12.016,0,0,1,8.982-10.141A12.165,12.165,0,0,0,597.1,466.443Z" transform="translate(-854.226 -1522)" fill="none" stroke="#EBA53C" stroke-linecap="round" stroke-linejoin="round" stroke-width="2"/>
      <path id="Path_172" data-name="Path 172" d="M588.443,476.008c0,4.194-3.77,7.605-8.294,7.605H559.3a8.293,8.293,0,0,1-8.227-7.144,7.274,7.274,0,0,1-.075-1.112,8.284,8.284,0,0,1,8.3-8.256,8.191,8.191,0,0,1,3.4.735c.292-3.958,3.9-7.087,8.284-7.087a8.973,8.973,0,0,1,3.138.575,7.624,7.624,0,0,1,5.164,7.031v.094a8.278,8.278,0,0,1,.858,0,8.756,8.756,0,0,1,5.165,1.659,7.674,7.674,0,0,1,1.5,1.423,7.181,7.181,0,0,1,1.329,2.5,6.89,6.89,0,0,1,.3,1.979Z" transform="translate(-852.9 -1522.612)" fill="none" stroke="#EBA53C" stroke-linecap="round" stroke-linejoin="round" stroke-width="2"/>
      <line id="Line_261" data-name="Line 261" y2="3.299" transform="translate(-281.581 -1035.483)" fill="none" stroke="#EBA53C" stroke-linecap="round" stroke-linejoin="round" stroke-width="2"/>
      <line id="Line_262" data-name="Line 262" y2="3.299" transform="translate(-281.581 -1029.178)" fill="none" stroke="#EBA53C" stroke-linecap="round" stroke-linejoin="round" stroke-width="2"/>
      <line id="Line_263" data-name="Line 263" y2="3.299" transform="translate(-277.17 -1038.31)" fill="none" stroke="#EBA53C" stroke-linecap="round" stroke-linejoin="round" stroke-width="2"/>
      <line id="Line_264" data-name="Line 264" y2="3.299" transform="translate(-277.17 -1030.121)" fill="none" stroke="#EBA53C" stroke-linecap="round" stroke-linejoin="round" stroke-width="2"/>
      <line id="Line_265" data-name="Line 265" y2="3.299" transform="translate(-286.01 -1038.31)" fill="none" stroke="#EBA53C" stroke-linecap="round" stroke-linejoin="round" stroke-width="2"/>
      <line id="Line_266" data-name="Line 266" y2="3.299" transform="translate(-286.01 -1030.121)" fill="none" stroke="#EBA53C" stroke-linecap="round" stroke-linejoin="round" stroke-width="2"/>
    </g>
  </g>
</svg>
