<svg xmlns="http://www.w3.org/2000/svg" width="48" height="48" viewBox="0 0 48 48">
  <g id="ic_weather_32" transform="translate(378 783)">
    <rect id="Rectangle_7" data-name="Rectangle 7" width="48" height="48" transform="translate(-378 -783)" fill="#ffd2d2" opacity="0"/>
    <g id="Group_77" data-name="Group 77" transform="translate(26.78 -10.29)">
      <path id="Path_8" data-name="Path 8" d="M487.468,777.583c0,4.294-3.86,7.787-8.492,7.787H457.621a8.492,8.492,0,0,1-8.424-7.314,7.624,7.624,0,0,1-.077-1.139,8.482,8.482,0,0,1,8.5-8.443,8.376,8.376,0,0,1,3.484.743c.3-4.053,3.995-7.247,8.482-7.247a8.955,8.955,0,0,1,3.213.589,7.806,7.806,0,0,1,5.278,7.2v.1a8.582,8.582,0,0,1,.878,0,8.956,8.956,0,0,1,5.288,1.689A7.72,7.72,0,0,1,485.779,773a7.334,7.334,0,0,1,1.689,4.584Z" transform="translate(-852.9 -1522.374)" fill="none" stroke="#EBA53C" stroke-linecap="round" stroke-linejoin="round" stroke-width="2"/>
      <path id="Path_9" data-name="Path 9" d="M488.164,765.743a6.841,6.841,0,0,1-3.049,5.616,8.955,8.955,0,0,0-5.288-1.689,8.6,8.6,0,0,0-.878,0V769.6a7.806,7.806,0,0,0-5.278-7.2,7.816,7.816,0,0,1,6.755-3.725C484.709,758.709,488.164,761.884,488.164,765.743Z" transform="translate(-853.76 -1522.259)" fill="none" stroke="#EBA53C" stroke-linecap="round" stroke-linejoin="round" stroke-width="2"/>
      <line id="Line_20" data-name="Line 20" y2="3.339" transform="translate(-373.297 -770.71)" fill="none" stroke="#EBA53C" stroke-linecap="round" stroke-linejoin="round" stroke-width="2"/>
      <line id="Line_21" data-name="Line 21" x2="2.576" y2="2.355" transform="translate(-384.278 -766.541)" fill="none" stroke="#EBA53C" stroke-linecap="round" stroke-linejoin="round" stroke-width="2"/>
      <line id="Line_22" data-name="Line 22" x2="2.567" y2="2.364" transform="translate(-363.608 -749.259)" fill="none" stroke="#EBA53C" stroke-linecap="round" stroke-linejoin="round" stroke-width="2"/>
      <line id="Line_23" data-name="Line 23" x2="3.638" transform="translate(-361.418 -756.496)" fill="none" stroke="#EBA53C" stroke-linecap="round" stroke-linejoin="round" stroke-width="2"/>
      <line id="Line_24" data-name="Line 24" y1="2.355" x2="2.576" transform="translate(-364.901 -766.541)" fill="none" stroke="#EBA53C" stroke-linecap="round" stroke-linejoin="round" stroke-width="2"/>
      <line id="Line_25" data-name="Line 25" x1="6.166" y2="10.277" transform="translate(-394.68 -736.454)" stroke-dasharray="1 5" stroke="#EBA53C" stroke-linecap="round" stroke-linejoin="round" stroke-width="2" fill="none"/>
      <line id="Line_26" data-name="Line 26" x1="4.201" y2="7.339" transform="translate(-389.28 -733.549)" stroke-dasharray="1 5" stroke="#EBA53C" stroke-linecap="round" stroke-linejoin="round" stroke-width="2" fill="none"/>
      <line id="Line_27" data-name="Line 27" x1="6.166" y2="10.277" transform="translate(-384.635 -736.454)" stroke-dasharray="1 5" stroke="#EBA53C" stroke-linecap="round" stroke-linejoin="round" stroke-width="2" fill="none"/>
    </g>
  </g>
</svg>
