<svg xmlns="http://www.w3.org/2000/svg" width="48" height="48.239" viewBox="0 0 48 48.239">
  <g id="ic_weather_54" transform="translate(574 391)">
    <rect id="Rectangle_7" data-name="Rectangle 7" width="48" height="48" transform="translate(-574 -391)" fill="#ffd2d2" opacity="0"/>
    <g id="Group_67" data-name="Group 67" transform="translate(28.54 -18.61)">
      <path id="Path_59" data-name="Path 59" d="M298.127,1167.355a12.385,12.385,0,0,1-7.831,7.106,7.367,7.367,0,0,0-1.363-2.562,7.874,7.874,0,0,0-1.537-1.46,8.981,8.981,0,0,0-5.3-1.7,8.494,8.494,0,0,0-.88,0v-.1a7.821,7.821,0,0,0-5.3-7.212,8.774,8.774,0,0,0-1.46-.416,12.327,12.327,0,0,1,9.214-10.4,12.479,12.479,0,0,0,14.453,16.745Z" transform="translate(-853.667 -1522)" fill="none" stroke="#EBA53C" stroke-linecap="round" stroke-linejoin="round" stroke-width="2"/>
      <line id="Line_94" data-name="Line 94" x1="6.187" y2="10.296" transform="translate(-596.773 -337.272)" fill="none" stroke="#EBA53C" stroke-linecap="round" stroke-linejoin="round" stroke-width="2"/>
      <line id="Line_95" data-name="Line 95" x1="5.414" y2="8.885" transform="translate(-591.563 -334.41)" fill="none" stroke="#EBA53C" stroke-linecap="round" stroke-linejoin="round" stroke-width="2"/>
      <path id="Path_60" data-name="Path 60" d="M289.771,1176.673c0,4.3-3.867,7.8-8.508,7.8H259.877a8.508,8.508,0,0,1-8.44-7.328,7.64,7.64,0,0,1-.077-1.141,8.5,8.5,0,0,1,8.517-8.459,8.391,8.391,0,0,1,3.49.744c.3-4.06,4-7.26,8.5-7.26a8.972,8.972,0,0,1,3.219.59,7.821,7.821,0,0,1,5.288,7.212v.1a8.7,8.7,0,0,1,.88,0,8.972,8.972,0,0,1,5.3,1.692,7.737,7.737,0,0,1,1.537,1.46,7.348,7.348,0,0,1,1.682,4.593Z" transform="translate(-852.9 -1522.346)" fill="none" stroke="#EBA53C" stroke-linecap="round" stroke-linejoin="round" stroke-width="2"/>
      <path id="Path_61" data-name="Path 61" d="M263.69,1184.975s9.155.126,14.076,0c4.457-.116,5.6-4.283,4.457-6.149s-5.23-1.025-4.041,2.291" transform="translate(-853.309 -1522.905)" fill="none" stroke="#EBA53C" stroke-linecap="round" stroke-linejoin="round" stroke-width="2"/>
      <path id="Path_62" data-name="Path 62" d="M271.75,1192h6.284c2.823,0,4.573,1.644,4.167,3.3" transform="translate(-853.577 -1523.375)" fill="none" stroke="#EBA53C" stroke-linecap="round" stroke-linejoin="round" stroke-width="2"/>
      <path id="Path_63" data-name="Path 63" d="M271.17,1188.909s7.367-.1,13.535,0c3.306.048,4.708,1.934,4.708,3.645a4.467,4.467,0,0,1-2.533,4.032" transform="translate(-853.558 -1523.271)" fill="none" stroke="#EBA53C" stroke-linecap="round" stroke-linejoin="round" stroke-width="2"/>
    </g>
  </g>
</svg>
