<svg xmlns="http://www.w3.org/2000/svg" width="48" height="48" viewBox="0 0 48 48">
  <g id="ic_weather_13" transform="translate(476 1077)">
    <rect id="Rectangle_7" data-name="Rectangle 7" width="48" height="48" transform="translate(-476 -1077)" fill="#ffd2d2" opacity="0"/>
    <g id="Group_28" data-name="Group 28" transform="translate(25.76 -5.36)">
      <path id="Path_168" data-name="Path 168" d="M394.87,471.54c0,4.45-4,8.07-8.8,8.07H363.95a8.8,8.8,0,0,1-8.73-7.58,7.9,7.9,0,0,1-.08-1.18,8.79,8.79,0,0,1,8.81-8.75,8.68,8.68,0,0,1,3.61.77c.31-4.2,4.14-7.51,8.79-7.51a9.281,9.281,0,0,1,3.33.61,8.09,8.09,0,0,1,5.47,7.46v.1a8.925,8.925,0,0,1,.91,0,9.28,9.28,0,0,1,5.48,1.75,8,8,0,0,1,1.59,1.51,7.6,7.6,0,0,1,1.74,4.75Z" transform="translate(-852.9 -1522)" fill="none" stroke="#EBA53C" stroke-linecap="round" stroke-linejoin="round" stroke-width="2"/>
      <line id="Line_244" data-name="Line 244" y2="3.5" transform="translate(-478.38 -1037.86)" fill="none" stroke="#EBA53C" stroke-linecap="round" stroke-linejoin="round" stroke-width="2"/>
      <line id="Line_245" data-name="Line 245" y2="3.5" transform="translate(-478.38 -1031.17)" fill="none" stroke="#EBA53C" stroke-linecap="round" stroke-linejoin="round" stroke-width="2"/>
      <line id="Line_246" data-name="Line 246" y2="3.5" transform="translate(-473.7 -1041.86)" fill="none" stroke="#EBA53C" stroke-linecap="round" stroke-linejoin="round" stroke-width="2"/>
      <line id="Line_247" data-name="Line 247" y2="3.5" transform="translate(-473.7 -1033.17)" fill="none" stroke="#EBA53C" stroke-linecap="round" stroke-linejoin="round" stroke-width="2"/>
      <line id="Line_248" data-name="Line 248" y2="3.5" transform="translate(-483.08 -1041.86)" fill="none" stroke="#EBA53C" stroke-linecap="round" stroke-linejoin="round" stroke-width="2"/>
      <line id="Line_249" data-name="Line 249" y2="3.5" transform="translate(-483.08 -1033.17)" fill="none" stroke="#EBA53C" stroke-linecap="round" stroke-linejoin="round" stroke-width="2"/>
    </g>
  </g>
</svg>
