<svg xmlns="http://www.w3.org/2000/svg" width="48" height="48" viewBox="0 0 48 48">
  <g id="ic_weather_39" transform="translate(280 685)">
    <rect id="Rectangle_7" data-name="Rectangle 7" width="48" height="48" transform="translate(-280 -685)" fill="#ffd2d2" opacity="0"/>
    <g id="Group_53" data-name="Group 53" transform="translate(23.71 -13.08)">
      <path id="Path_101" data-name="Path 101" d="M596.548,867.507a12.15,12.15,0,0,1-7.682,6.971,7.227,7.227,0,0,0-1.337-2.513,7.723,7.723,0,0,0-1.508-1.432,8.81,8.81,0,0,0-5.2-1.669,8.324,8.324,0,0,0-.863,0v-.095a7.673,7.673,0,0,0-5.2-7.075,8.6,8.6,0,0,0-1.432-.408,12.093,12.093,0,0,1,9.039-10.205,12.243,12.243,0,0,0,14.179,16.427Z" transform="translate(-854.093 -1522)" fill="none" stroke="#EBA53C" stroke-linecap="round" stroke-linejoin="round" stroke-width="2"/>
      <line id="Line_145" data-name="Line 145" y2="11.543" transform="translate(-293.073 -637.866)" fill="none" stroke="#EBA53C" stroke-linecap="round" stroke-linejoin="round" stroke-width="2"/>
      <line id="Line_146" data-name="Line 146" y2="10.139" transform="translate(-288.72 -635.059)" fill="none" stroke="#EBA53C" stroke-linecap="round" stroke-linejoin="round" stroke-width="2"/>
      <path id="Path_102" data-name="Path 102" d="M587.948,876.846c0,4.221-3.794,7.654-8.346,7.654H558.546a8.347,8.347,0,0,1-8.28-7.189,7.5,7.5,0,0,1-.076-1.119,8.337,8.337,0,0,1,8.356-8.3,8.232,8.232,0,0,1,3.424.73c.294-3.983,3.927-7.123,8.337-7.123a8.8,8.8,0,0,1,3.158.579,7.673,7.673,0,0,1,5.188,7.076v.095a8.446,8.446,0,0,1,.863,0,8.8,8.8,0,0,1,5.2,1.66,7.591,7.591,0,0,1,1.508,1.432A7.209,7.209,0,0,1,587.948,876.846Z" transform="translate(-852.9 -1522.537)" fill="none" stroke="#EBA53C" stroke-linecap="round" stroke-linejoin="round" stroke-width="2"/>
      <path id="Path_103" data-name="Path 103" d="M562.56,885.31s8.982.123,13.809,0c4.372-.114,5.492-4.2,4.372-6.032s-5.131-1.005-3.965,2.248" transform="translate(-853.537 -1523.404)" fill="none" stroke="#EBA53C" stroke-linecap="round" stroke-linejoin="round" stroke-width="2"/>
      <path id="Path_104" data-name="Path 104" d="M570.62,892.45h6.165c2.769,0,4.486,1.612,4.088,3.234" transform="translate(-853.953 -1524.132)" fill="none" stroke="#EBA53C" stroke-linecap="round" stroke-linejoin="round" stroke-width="2"/>
      <path id="Path_105" data-name="Path 105" d="M570,889.378s7.227-.095,13.278,0c3.244.047,4.619,1.9,4.619,3.576a4.382,4.382,0,0,1-2.485,3.955" transform="translate(-853.921 -1523.972)" fill="none" stroke="#EBA53C" stroke-linecap="round" stroke-linejoin="round" stroke-width="2"/>
    </g>
  </g>
</svg>
