<svg xmlns="http://www.w3.org/2000/svg" width="48" height="48" viewBox="0 0 48 48">
  <g id="ic_weather_31" transform="translate(476 783)">
    <rect id="Rectangle_7" data-name="Rectangle 7" width="48" height="48" transform="translate(-476 -783)" fill="#ffd2d2" opacity="0"/>
    <g id="Group_47" data-name="Group 47" transform="translate(27.34 -12.44)">
      <path id="Path_28" data-name="Path 28" d="M393.29,773.62c0,4.45-4,8.07-8.8,8.07H362.37a8.8,8.8,0,0,1-8.73-7.58,7.9,7.9,0,0,1-.08-1.18,8.79,8.79,0,0,1,8.81-8.75,8.679,8.679,0,0,1,3.61.77c.31-4.2,4.14-7.51,8.79-7.51a9.282,9.282,0,0,1,3.33.61,8.09,8.09,0,0,1,5.47,7.46v.1a8.891,8.891,0,0,1,.91,0,9.28,9.28,0,0,1,5.48,1.75,8,8,0,0,1,1.59,1.51A7.6,7.6,0,0,1,393.29,773.62Z" transform="translate(-852.9 -1522)" fill="none" stroke="#EBA53C" stroke-linecap="round" stroke-linejoin="round" stroke-width="2"/>
      <line id="Line_68" data-name="Line 68" x1="0.26" y2="0.43" transform="translate(-483.78 -739.74)" fill="none" stroke="#EBA53C" stroke-linecap="round" stroke-linejoin="round" stroke-width="2"/>
      <line id="Line_69" data-name="Line 69" x1="1.87" y2="3.11" transform="translate(-488.32 -734.86)" stroke-dasharray="1.04 5.19" stroke="#EBA53C" stroke-linecap="round" stroke-linejoin="round" stroke-width="2" fill="none"/>
      <line id="Line_70" data-name="Line 70" x1="0.25" y2="0.43" transform="translate(-489.91 -729.52)" fill="none" stroke="#EBA53C" stroke-linecap="round" stroke-linejoin="round" stroke-width="2"/>
      <line id="Line_71" data-name="Line 71" x1="0.26" y2="0.42" transform="translate(-480.22 -736.73)" fill="none" stroke="#EBA53C" stroke-linecap="round" stroke-linejoin="round" stroke-width="2"/>
      <line id="Line_72" data-name="Line 72" x1="1.6" y2="2.64" transform="translate(-484.12 -732.54)" stroke-dasharray="0.88 4.41" stroke="#EBA53C" stroke-linecap="round" stroke-linejoin="round" stroke-width="2" fill="none"/>
      <line id="Line_73" data-name="Line 73" x1="0.26" y2="0.43" transform="translate(-485.53 -728.02)" fill="none" stroke="#EBA53C" stroke-linecap="round" stroke-linejoin="round" stroke-width="2"/>
      <line id="Line_74" data-name="Line 74" x1="0.26" y2="0.43" transform="translate(-473.37 -739.74)" fill="none" stroke="#EBA53C" stroke-linecap="round" stroke-linejoin="round" stroke-width="2"/>
      <line id="Line_75" data-name="Line 75" x1="1.87" y2="3.11" transform="translate(-477.91 -734.86)" stroke-dasharray="1.04 5.19" stroke="#EBA53C" stroke-linecap="round" stroke-linejoin="round" stroke-width="2" fill="none"/>
      <line id="Line_76" data-name="Line 76" x1="0.26" y2="0.43" transform="translate(-479.51 -729.52)" fill="none" stroke="#EBA53C" stroke-linecap="round" stroke-linejoin="round" stroke-width="2"/>
    </g>
  </g>
</svg>
