<svg xmlns="http://www.w3.org/2000/svg" width="48" height="48" viewBox="0 0 48 48">
  <g id="ic_weather_25" transform="translate(476 881)">
    <rect id="Rectangle_7" data-name="Rectangle 7" width="48" height="48" transform="translate(-476 -881)" fill="#ffd2d2" opacity="0"/>
    <g id="Group_41" data-name="Group 41" transform="translate(26.76 -10.82)">
      <path id="Path_173" data-name="Path 173" d="M393.87,673c0,4.45-4,8.07-8.8,8.07H362.95a8.8,8.8,0,0,1-8.73-7.58,7.9,7.9,0,0,1-.08-1.18,8.79,8.79,0,0,1,8.81-8.75,8.679,8.679,0,0,1,3.61.77c.31-4.2,4.14-7.51,8.79-7.51a9.281,9.281,0,0,1,3.33.61,8.09,8.09,0,0,1,5.47,7.46v.1a8.891,8.891,0,0,1,.91,0,9.28,9.28,0,0,1,5.48,1.75,8,8,0,0,1,1.59,1.51,7.6,7.6,0,0,1,1.74,4.75Z" transform="translate(-852.9 -1522)" fill="none" stroke="#EBA53C" stroke-linecap="round" stroke-linejoin="round" stroke-width="2"/>
      <line id="Line_267" data-name="Line 267" y2="10.2" transform="translate(-479.38 -836.44)" fill="none" stroke="#EBA53C" stroke-linecap="round" stroke-linejoin="round" stroke-width="2"/>
      <line id="Line_268" data-name="Line 268" y2="12.2" transform="translate(-474.7 -839.44)" fill="none" stroke="#EBA53C" stroke-linecap="round" stroke-linejoin="round" stroke-width="2"/>
      <line id="Line_269" data-name="Line 269" y2="12.2" transform="translate(-484.08 -839.44)" fill="none" stroke="#EBA53C" stroke-linecap="round" stroke-linejoin="round" stroke-width="2"/>
    </g>
  </g>
</svg>
