<svg xmlns="http://www.w3.org/2000/svg" width="48" height="48" viewBox="0 0 48 48">
  <g id="ic_weather_19" transform="translate(476 979)">
    <rect id="Rectangle_7" data-name="Rectangle 7" width="48" height="48" transform="translate(-476 -979)" fill="#ffd2d2" opacity="0"/>
    <g id="Group_35" data-name="Group 35" transform="translate(25.42 -9.82)">
      <path id="Path_19" data-name="Path 19" d="M395.21,575c0,4.45-4,8.07-8.8,8.07H364.29a8.8,8.8,0,0,1-8.73-7.58,7.9,7.9,0,0,1-.08-1.18,8.79,8.79,0,0,1,8.81-8.75,8.681,8.681,0,0,1,3.61.77c.31-4.2,4.14-7.51,8.79-7.51a9.279,9.279,0,0,1,3.33.61,8.09,8.09,0,0,1,5.47,7.46v.1a8.909,8.909,0,0,1,.91,0,9.28,9.28,0,0,1,5.48,1.75,8,8,0,0,1,1.59,1.51,7.6,7.6,0,0,1,1.74,4.75Z" transform="translate(-852.9 -1522)" fill="none" stroke="#EBA53C" stroke-linecap="round" stroke-linejoin="round" stroke-width="2"/>
      <line id="Line_42" data-name="Line 42" x1="6.4" y2="10.65" transform="translate(-488 -938.38)" fill="none" stroke="#EBA53C" stroke-linecap="round" stroke-linejoin="round" stroke-width="2"/>
      <line id="Line_43" data-name="Line 43" x1="5.58" y2="9.14" transform="translate(-483.62 -935.37)" fill="none" stroke="#EBA53C" stroke-linecap="round" stroke-linejoin="round" stroke-width="2"/>
      <line id="Line_44" data-name="Line 44" x1="6.39" y2="10.65" transform="translate(-477.59 -938.38)" fill="none" stroke="#EBA53C" stroke-linecap="round" stroke-linejoin="round" stroke-width="2"/>
    </g>
  </g>
</svg>
