<svg xmlns="http://www.w3.org/2000/svg" width="48" height="48.21" viewBox="0 0 48 48.21">
  <g id="ic_weather_12" transform="translate(574 1077)">
    <rect id="Rectangle_7" data-name="Rectangle 7" width="48" height="48" transform="translate(-574 -1077)" fill="#ffd2d2" opacity="0"/>
    <g id="Group_29" data-name="Group 29" transform="translate(28.63 -5.33)">
      <path id="Path_20" data-name="Path 20" d="M298.154,468.023a12.325,12.325,0,0,1-7.774,7.043,7.33,7.33,0,0,0-1.357-2.55,7.838,7.838,0,0,0-1.53-1.453,8.936,8.936,0,0,0-5.272-1.693,8.445,8.445,0,0,0-.875,0v-.1a7.784,7.784,0,0,0-5.273-7.178,8.731,8.731,0,0,0-1.453-.414,12.267,12.267,0,0,1,9.169-10.353,12.306,12.306,0,0,0,14.365,16.693Z" transform="translate(-853.784 -1522)" fill="none" stroke="#EBA53C" stroke-linecap="round" stroke-linejoin="round" stroke-width="2"/>
      <path id="Path_21" data-name="Path 21" d="M289.5,477.567c0,4.282-3.849,7.764-8.467,7.764H259.746a8.466,8.466,0,0,1-8.4-7.292,7.621,7.621,0,0,1-.077-1.135,8.457,8.457,0,0,1,8.476-8.419,8.344,8.344,0,0,1,3.473.741c.3-4.042,3.983-7.226,8.457-7.226a8.933,8.933,0,0,1,3.2.587,7.783,7.783,0,0,1,5.263,7.178v.1a8.45,8.45,0,0,1,.876,0,8.927,8.927,0,0,1,5.272,1.684,7.714,7.714,0,0,1,1.53,1.453A7.313,7.313,0,0,1,289.5,477.567Z" transform="translate(-852.9 -1522.404)" fill="none" stroke="#EBA53C" stroke-linecap="round" stroke-linejoin="round" stroke-width="2"/>
      <line id="Line_45" data-name="Line 45" x1="1.732" y2="2.896" transform="translate(-588.15 -1036.534)" fill="none" stroke="#EBA53C" stroke-linecap="round" stroke-linejoin="round" stroke-width="2"/>
      <line id="Line_46" data-name="Line 46" x1="1.732" y2="2.886" transform="translate(-592.566 -1029.173)" fill="none" stroke="#EBA53C" stroke-linecap="round" stroke-linejoin="round" stroke-width="2"/>
      <line id="Line_47" data-name="Line 47" x1="1.751" y2="2.877" transform="translate(-584.744 -1033.638)" fill="none" stroke="#EBA53C" stroke-linecap="round" stroke-linejoin="round" stroke-width="2"/>
      <line id="Line_48" data-name="Line 48" x1="1.751" y2="2.877" transform="translate(-588.352 -1027.711)" fill="none" stroke="#EBA53C" stroke-linecap="round" stroke-linejoin="round" stroke-width="2"/>
      <line id="Line_49" data-name="Line 49" x1="1.732" y2="2.896" transform="translate(-578.134 -1036.534)" fill="none" stroke="#EBA53C" stroke-linecap="round" stroke-linejoin="round" stroke-width="2"/>
      <line id="Line_50" data-name="Line 50" x1="1.732" y2="2.886" transform="translate(-582.551 -1029.173)" fill="none" stroke="#EBA53C" stroke-linecap="round" stroke-linejoin="round" stroke-width="2"/>
    </g>
  </g>
</svg>
