<svg xmlns="http://www.w3.org/2000/svg" width="48" height="48" viewBox="0 0 48 48">
  <g id="ic_weather_20" transform="translate(378 979)">
    <rect id="Rectangle_7" data-name="Rectangle 7" width="48" height="48" transform="translate(-378 -979)" fill="#ffd2d2" opacity="0"/>
    <g id="Group_36" data-name="Group 36" transform="translate(25.4 -8.23)">
      <path id="Path_141" data-name="Path 141" d="M488.369,578.242c0,4.242-3.813,7.692-8.388,7.692H458.9a8.388,8.388,0,0,1-8.321-7.225,7.532,7.532,0,0,1-.076-1.125,8.378,8.378,0,0,1,8.4-8.34,8.272,8.272,0,0,1,3.441.734c.3-4,3.946-7.158,8.378-7.158a8.847,8.847,0,0,1,3.174.581,7.711,7.711,0,0,1,5.214,7.111v.1a8.477,8.477,0,0,1,.867,0,8.845,8.845,0,0,1,5.223,1.668,7.623,7.623,0,0,1,1.516,1.439,7.244,7.244,0,0,1,1.659,4.528Z" transform="translate(-852.9 -1522.496)" fill="none" stroke="#EBA53C" stroke-linecap="round" stroke-linejoin="round" stroke-width="2"/>
      <line id="Line_202" data-name="Line 202" x1="6.1" y2="10.151" transform="translate(-393.421 -936.037)" fill="none" stroke="#EBA53C" stroke-linecap="round" stroke-linejoin="round" stroke-width="2"/>
      <line id="Line_203" data-name="Line 203" x1="5.319" y2="8.712" transform="translate(-389.246 -933.168)" fill="none" stroke="#EBA53C" stroke-linecap="round" stroke-linejoin="round" stroke-width="2"/>
      <line id="Line_204" data-name="Line 204" x1="6.091" y2="10.151" transform="translate(-383.498 -936.037)" fill="none" stroke="#EBA53C" stroke-linecap="round" stroke-linejoin="round" stroke-width="2"/>
      <path id="Path_142" data-name="Path 142" d="M489.956,566.657a6.758,6.758,0,0,1-3.012,5.547,8.845,8.845,0,0,0-5.242-1.735,8.478,8.478,0,0,0-.867,0h0a7.711,7.711,0,0,0-5.214-7.111,7.72,7.72,0,0,1,6.672-3.679C486.553,559.651,489.956,562.768,489.956,566.657Z" transform="translate(-854.076 -1522.349)" fill="none" stroke="#EBA53C" stroke-linecap="round" stroke-linejoin="round" stroke-width="2"/>
      <line id="Line_205" data-name="Line 205" y2="3.288" transform="translate(-371.727 -969.77)" fill="none" stroke="#EBA53C" stroke-linecap="round" stroke-linejoin="round" stroke-width="2"/>
      <line id="Line_206" data-name="Line 206" x2="2.535" y2="2.326" transform="translate(-382.564 -965.652)" fill="none" stroke="#EBA53C" stroke-linecap="round" stroke-linejoin="round" stroke-width="2"/>
      <line id="Line_207" data-name="Line 207" x2="2.545" y2="2.326" transform="translate(-362.157 -948.581)" fill="none" stroke="#EBA53C" stroke-linecap="round" stroke-linejoin="round" stroke-width="2"/>
      <line id="Line_208" data-name="Line 208" x2="3.593" transform="translate(-359.993 -955.73)" fill="none" stroke="#EBA53C" stroke-linecap="round" stroke-linejoin="round" stroke-width="2"/>
      <line id="Line_209" data-name="Line 209" y1="2.326" x2="2.535" transform="translate(-363.425 -965.652)" fill="none" stroke="#EBA53C" stroke-linecap="round" stroke-linejoin="round" stroke-width="2"/>
    </g>
  </g>
</svg>
