<svg xmlns="http://www.w3.org/2000/svg" width="48" height="48" viewBox="0 0 48 48">
  <g id="ic_weather_22" transform="translate(770 881)">
    <rect id="Rectangle_7" data-name="Rectangle 7" width="48" height="48" transform="translate(-770 -881)" fill="#ffd2d2" opacity="0"/>
    <g id="Group_38" data-name="Group 38" transform="translate(31.702 -10.55)">
      <path id="Path_160" data-name="Path 160" d="M15.94,681.89l-4.14,6.2h4.22l-4.22,6.3" transform="translate(-800 -1522)" fill="none" stroke="#EBA53C" stroke-linecap="round" stroke-linejoin="round" stroke-width="2"/>
      <line id="Line_234" data-name="Line 234" x1="6.4" y2="10.81" transform="translate(-775.76 -840.12)" fill="none" stroke="#EBA53C" stroke-linecap="round" stroke-linejoin="round" stroke-width="2"/>
      <line id="Line_235" data-name="Line 235" x1="5.57" y2="9.29" transform="translate(-782.08 -837.23)" fill="none" stroke="#EBA53C" stroke-linecap="round" stroke-linejoin="round" stroke-width="2"/>
      <path id="Path_161" data-name="Path 161" d="M94.93,673.74c0,4.45-4,8.07-8.8,8.07H64a8.8,8.8,0,0,1-8.73-7.58A7.709,7.709,0,0,1,55.2,673a8.79,8.79,0,0,1,8.8-8.71,8.691,8.691,0,0,1,3.61.78c.31-4.2,4.14-7.52,8.79-7.52a9.522,9.522,0,0,1,3.33.61,8.09,8.09,0,0,1,5.48,7.46v.1a8.771,8.771,0,0,1,.91,0,9.29,9.29,0,0,1,5.48,1.76,8.14,8.14,0,0,1,1.59,1.51,7.621,7.621,0,0,1,1.41,2.65,7.309,7.309,0,0,1,.33,2.1Z" transform="translate(-852.9 -1522)" fill="none" stroke="#EBA53C" stroke-linecap="round" stroke-linejoin="round" stroke-width="2"/>
    </g>
  </g>
</svg>
