<svg xmlns="http://www.w3.org/2000/svg" width="48" height="48" viewBox="0 0 48 48">
  <g id="ic_weather_55" transform="translate(476 391)">
    <rect id="Rectangle_7" data-name="Rectangle 7" width="48" height="48" transform="translate(-476 -391)" fill="#ffd2d2" opacity="0"/>
    <g id="Group_68" data-name="Group 68" transform="translate(27.37 -19.25)">
      <line id="Line_154" data-name="Line 154" y2="0.5" transform="translate(-488.05 -341.88)" fill="none" stroke="#EBA53C" stroke-linecap="round" stroke-linejoin="round" stroke-width="2"/>
      <line id="Line_155" data-name="Line 155" y2="3.55" transform="translate(-488.05 -336.3)" stroke-dasharray="1.02 5.08" stroke="#EBA53C" stroke-linecap="round" stroke-linejoin="round" stroke-width="2" fill="none"/>
      <line id="Line_156" data-name="Line 156" y2="0.5" transform="translate(-488.05 -330.21)" fill="none" stroke="#EBA53C" stroke-linecap="round" stroke-linejoin="round" stroke-width="2"/>
      <line id="Line_157" data-name="Line 157" y2="0.5" transform="translate(-483.46 -338.92)" fill="none" stroke="#EBA53C" stroke-linecap="round" stroke-linejoin="round" stroke-width="2"/>
      <line id="Line_158" data-name="Line 158" y2="3.09" transform="translate(-483.46 -334.02)" stroke-dasharray="0.88 4.4" stroke="#EBA53C" stroke-linecap="round" stroke-linejoin="round" stroke-width="2" fill="none"/>
      <line id="Line_159" data-name="Line 159" y2="0.5" transform="translate(-483.46 -328.73)" fill="none" stroke="#EBA53C" stroke-linecap="round" stroke-linejoin="round" stroke-width="2"/>
      <path id="Path_111" data-name="Path 111" d="M393.26,1171.43c0,4.45-4,8.07-8.8,8.07H362.34a8.8,8.8,0,0,1-8.73-7.58,7.9,7.9,0,0,1-.08-1.18,8.79,8.79,0,0,1,8.81-8.75,8.681,8.681,0,0,1,3.61.77c.31-4.2,4.14-7.51,8.79-7.51a9.278,9.278,0,0,1,3.33.61,8.09,8.09,0,0,1,5.47,7.46v.1a8.979,8.979,0,0,1,.91,0,9.281,9.281,0,0,1,5.48,1.75,8,8,0,0,1,1.59,1.51,7.6,7.6,0,0,1,1.74,4.75Z" transform="translate(-852.9 -1522)" fill="none" stroke="#EBA53C" stroke-linecap="round" stroke-linejoin="round" stroke-width="2"/>
      <path id="Path_112" data-name="Path 112" d="M365.86,1179.44s9.47.13,14.56,0c4.61-.12,5.79-4.43,4.61-6.36s-5.41-1.06-4.18,2.37" transform="translate(-852.9 -1522)" fill="none" stroke="#EBA53C" stroke-linecap="round" stroke-linejoin="round" stroke-width="2"/>
      <path id="Path_113" data-name="Path 113" d="M373.92,1186.2h6.5c2.92,0,4.73,1.7,4.31,3.41" transform="translate(-852.9 -1522)" fill="none" stroke="#EBA53C" stroke-linecap="round" stroke-linejoin="round" stroke-width="2"/>
      <path id="Path_114" data-name="Path 114" d="M373.33,1183.13s7.62-.1,14,0c3.42.05,4.87,2,4.87,3.77a4.62,4.62,0,0,1-2.62,4.17" transform="translate(-852.9 -1522)" fill="none" stroke="#EBA53C" stroke-linecap="round" stroke-linejoin="round" stroke-width="2"/>
    </g>
  </g>
</svg>
