<svg xmlns="http://www.w3.org/2000/svg" width="48" height="48" viewBox="0 0 48 48">
  <g id="ic_weather_33" transform="translate(280 783)">
    <rect id="Rectangle_7" data-name="Rectangle 7" width="48" height="48" transform="translate(-280 -783)" fill="#ffd2d2" opacity="0"/>
    <g id="Group_78" data-name="Group 78" transform="translate(22.88 -10.82)">
      <path id="Path_10" data-name="Path 10" d="M597.652,767.66a12.455,12.455,0,0,1-7.876,7.146,7.409,7.409,0,0,0-1.371-2.577,7.911,7.911,0,0,0-1.546-1.468,9.033,9.033,0,0,0-5.328-1.711,8.522,8.522,0,0,0-.885,0v-.1a7.866,7.866,0,0,0-5.328-7.253,8.82,8.82,0,0,0-1.468-.418,12.4,12.4,0,0,1,9.266-10.462,12.551,12.551,0,0,0,14.536,16.84Z" transform="translate(-853.532 -1522)" fill="none" stroke="#EBA53C" stroke-linecap="round" stroke-linejoin="round" stroke-width="2"/>
      <path id="Path_11" data-name="Path 11" d="M589.659,777.7c0,4.327-3.889,7.846-8.556,7.846H559.586a8.556,8.556,0,0,1-8.488-7.37,7.693,7.693,0,0,1-.078-1.147,8.547,8.547,0,0,1,8.566-8.508,8.439,8.439,0,0,1,3.51.749c.3-4.084,4.025-7.3,8.547-7.3a9.025,9.025,0,0,1,3.238.593,7.866,7.866,0,0,1,5.289,7.214v.1a8.679,8.679,0,0,1,.885,0,9.024,9.024,0,0,1,5.328,1.7,7.777,7.777,0,0,1,1.546,1.468,7.389,7.389,0,0,1,1.731,4.657Z" transform="translate(-852.9 -1522.309)" fill="none" stroke="#EBA53C" stroke-linecap="round" stroke-linejoin="round" stroke-width="2"/>
      <line id="Line_28" data-name="Line 28" x1="6.213" y2="10.355" transform="translate(-292.711 -736.206)" stroke-dasharray="1 5" stroke="#EBA53C" stroke-linecap="round" stroke-linejoin="round" stroke-width="2" fill="none"/>
      <line id="Line_29" data-name="Line 29" x1="4.217" y2="6.527" transform="translate(-287.254 -733.279)" stroke-dasharray="1 5" stroke="#EBA53C" stroke-linecap="round" stroke-linejoin="round" stroke-width="2" fill="none"/>
      <line id="Line_30" data-name="Line 30" x1="6.223" y2="10.355" transform="translate(-282.599 -736.206)" stroke-dasharray="1 5" stroke="#EBA53C" stroke-linecap="round" stroke-linejoin="round" stroke-width="2" fill="none"/>
    </g>
  </g>
</svg>
