<svg xmlns="http://www.w3.org/2000/svg" width="48" height="48.182" viewBox="0 0 48 48.182">
  <g id="ic_weather_21" transform="translate(280 979)">
    <rect id="Rectangle_7" data-name="Rectangle 7" width="48" height="48" transform="translate(-280 -979)" fill="#ffd2d2" opacity="0"/>
    <g id="Group_37" data-name="Group 37" transform="translate(22.38 -8.16)">
      <path id="Path_17" data-name="Path 17" d="M598.4,568.824a12.325,12.325,0,0,1-7.793,7.072,7.331,7.331,0,0,0-1.357-2.55,7.831,7.831,0,0,0-1.53-1.453,8.939,8.939,0,0,0-5.272-1.693,8.448,8.448,0,0,0-.876,0v-.1a7.784,7.784,0,0,0-5.273-7.178,8.732,8.732,0,0,0-1.453-.414,12.267,12.267,0,0,1,9.169-10.353A12.42,12.42,0,0,0,598.4,568.824Z" transform="translate(-853.783 -1522)" fill="none" stroke="#EBA53C" stroke-linecap="round" stroke-linejoin="round" stroke-width="2"/>
      <path id="Path_18" data-name="Path 18" d="M589.746,578.387c0,4.282-3.849,7.764-8.467,7.764H560a8.467,8.467,0,0,1-8.4-7.293,7.614,7.614,0,0,1-.077-1.135A8.457,8.457,0,0,1,560,569.3a8.351,8.351,0,0,1,3.473.741c.3-4.041,3.983-7.226,8.457-7.226a8.931,8.931,0,0,1,3.2.587,7.784,7.784,0,0,1,5.263,7.178v.1a8.53,8.53,0,0,1,.875,0,8.929,8.929,0,0,1,5.273,1.684,7.7,7.7,0,0,1,1.53,1.453,7.312,7.312,0,0,1,1.674,4.57Z" transform="translate(-852.9 -1522.404)" fill="none" stroke="#EBA53C" stroke-linecap="round" stroke-linejoin="round" stroke-width="2"/>
      <line id="Line_39" data-name="Line 39" x1="6.158" y2="10.247" transform="translate(-292.316 -935.723)" fill="none" stroke="#EBA53C" stroke-linecap="round" stroke-linejoin="round" stroke-width="2"/>
      <line id="Line_40" data-name="Line 40" x1="5.369" y2="8.794" transform="translate(-288.102 -932.826)" fill="none" stroke="#EBA53C" stroke-linecap="round" stroke-linejoin="round" stroke-width="2"/>
      <line id="Line_41" data-name="Line 41" x1="6.148" y2="10.247" transform="translate(-282.301 -935.723)" fill="none" stroke="#EBA53C" stroke-linecap="round" stroke-linejoin="round" stroke-width="2"/>
    </g>
  </g>
</svg>
