<svg xmlns="http://www.w3.org/2000/svg" width="48" height="48" viewBox="0 0 48 48">
  <g id="ic_weather_27" transform="translate(280 881)">
    <rect id="Rectangle_7" data-name="Rectangle 7" width="48" height="48" transform="translate(-280 -881)" fill="#ffd2d2" opacity="0"/>
    <g id="Group_43" data-name="Group 43" transform="translate(23.21 -8.68)">
      <path id="Path_174" data-name="Path 174" d="M597.93,667.01a12.077,12.077,0,0,1-7.637,6.93,7.183,7.183,0,0,0-1.329-2.5,7.674,7.674,0,0,0-1.5-1.424,8.759,8.759,0,0,0-5.167-1.659,8.245,8.245,0,0,0-.858,0v-.094a7.627,7.627,0,0,0-5.167-7.033,8.554,8.554,0,0,0-1.424-.405,12.021,12.021,0,0,1,8.985-10.145,12.17,12.17,0,0,0,14.095,16.33Z" transform="translate(-854.224 -1522)" fill="none" stroke="#EBA53C" stroke-linecap="round" stroke-linejoin="round" stroke-width="2"/>
      <path id="Path_175" data-name="Path 175" d="M589.148,676.755c0,4.2-3.771,7.609-8.3,7.609H560a8.3,8.3,0,0,1-8.231-7.147,7.445,7.445,0,0,1-.075-1.112,8.287,8.287,0,0,1,8.306-8.25,8.182,8.182,0,0,1,3.4.726c.292-3.96,3.9-7.081,8.287-7.081a8.75,8.75,0,0,1,3.14.575,7.627,7.627,0,0,1,5.157,7.034v.094a8.415,8.415,0,0,1,.858,0,8.75,8.75,0,0,1,5.167,1.65,7.542,7.542,0,0,1,1.5,1.424,7.166,7.166,0,0,1,1.641,4.478Z" transform="translate(-852.9 -1522.619)" fill="none" stroke="#EBA53C" stroke-linecap="round" stroke-linejoin="round" stroke-width="2"/>
      <line id="Line_270" data-name="Line 270" y2="8.881" transform="translate(-282.929 -834.201)" fill="none" stroke="#EBA53C" stroke-linecap="round" stroke-linejoin="round" stroke-width="2"/>
      <line id="Line_271" data-name="Line 271" y2="10.626" transform="translate(-278.526 -836.813)" fill="none" stroke="#EBA53C" stroke-linecap="round" stroke-linejoin="round" stroke-width="2"/>
      <line id="Line_272" data-name="Line 272" y2="10.626" transform="translate(-287.369 -836.813)" fill="none" stroke="#EBA53C" stroke-linecap="round" stroke-linejoin="round" stroke-width="2"/>
    </g>
  </g>
</svg>
