<svg xmlns="http://www.w3.org/2000/svg" width="48" height="48" viewBox="0 0 48 48">
  <g id="ic_weather_49" transform="translate(476 489)">
    <rect id="Rectangle_7" data-name="Rectangle 7" width="48" height="48" transform="translate(-476 -489)" fill="#ffd2d2" opacity="0"/>
    <g id="Group_63" data-name="Group 63" transform="translate(26.77 -17.33)">
      <line id="Line_103" data-name="Line 103" x1="1.8" y2="3.01" transform="translate(-489.25 -441.81)" fill="none" stroke="#EBA53C" stroke-linecap="round" stroke-linejoin="round" stroke-width="2"/>
      <line id="Line_104" data-name="Line 104" x1="1.8" y2="3" transform="translate(-493.84 -434.16)" fill="none" stroke="#EBA53C" stroke-linecap="round" stroke-linejoin="round" stroke-width="2"/>
      <line id="Line_105" data-name="Line 105" x1="1.82" y2="2.99" transform="translate(-484.68 -438.84)" fill="none" stroke="#EBA53C" stroke-linecap="round" stroke-linejoin="round" stroke-width="2"/>
      <line id="Line_106" data-name="Line 106" x1="1.83" y2="2.99" transform="translate(-488.46 -432.64)" fill="none" stroke="#EBA53C" stroke-linecap="round" stroke-linejoin="round" stroke-width="2"/>
      <path id="Path_69" data-name="Path 69" d="M393.86,1071.51c0,4.45-4,8.07-8.8,8.07H362.94a8.8,8.8,0,0,1-8.73-7.58,7.9,7.9,0,0,1-.08-1.18,8.79,8.79,0,0,1,8.81-8.75,8.681,8.681,0,0,1,3.61.77c.31-4.2,4.14-7.51,8.79-7.51a9.281,9.281,0,0,1,3.33.61,8.09,8.09,0,0,1,5.47,7.46v.1a8.944,8.944,0,0,1,.91,0,9.281,9.281,0,0,1,5.48,1.75,8,8,0,0,1,1.59,1.51A7.6,7.6,0,0,1,393.86,1071.51Z" transform="translate(-852.9 -1522)" fill="none" stroke="#EBA53C" stroke-linecap="round" stroke-linejoin="round" stroke-width="2"/>
      <path id="Path_70" data-name="Path 70" d="M366.46,1079.52s9.47.13,14.56,0c4.61-.12,5.79-4.43,4.61-6.36s-5.41-1.06-4.18,2.37" transform="translate(-852.9 -1522)" fill="none" stroke="#EBA53C" stroke-linecap="round" stroke-linejoin="round" stroke-width="2"/>
      <path id="Path_71" data-name="Path 71" d="M374.52,1086.28H381c2.92,0,4.73,1.7,4.31,3.41" transform="translate(-852.9 -1522)" fill="none" stroke="#EBA53C" stroke-linecap="round" stroke-linejoin="round" stroke-width="2"/>
      <path id="Path_72" data-name="Path 72" d="M373.93,1083.2s7.62-.1,14,0c3.42.05,4.87,2,4.87,3.77a4.62,4.62,0,0,1-2.62,4.17" transform="translate(-852.9 -1522)" fill="none" stroke="#EBA53C" stroke-linecap="round" stroke-linejoin="round" stroke-width="2"/>
    </g>
  </g>
</svg>
