<svg xmlns="http://www.w3.org/2000/svg" width="48" height="48" viewBox="0 0 48 48">
  <g id="ic_weather_52" transform="translate(770 391)">
    <rect id="Rectangle_7" data-name="Rectangle 7" width="48" height="48" transform="translate(-770 -391)" fill="#ffd2d2" opacity="0"/>
    <g id="Group_155" data-name="Group 155" transform="translate(1.28 -18.33)">
      <line id="Line_92" data-name="Line 92" x1="6.39" y2="10.65" transform="translate(-762.35 -341.84)" fill="none" stroke="#EBA53C" stroke-linecap="round" stroke-linejoin="round" stroke-width="2"/>
      <line id="Line_93" data-name="Line 93" x1="5.6" y2="9.19" transform="translate(-756.97 -338.88)" fill="none" stroke="#EBA53C" stroke-linecap="round" stroke-linejoin="round" stroke-width="2"/>
      <path id="Path_55" data-name="Path 55" d="M94.35,1171.47c0,4.45-4,8.07-8.8,8.07H63.43A8.8,8.8,0,0,1,54.7,1172a7.9,7.9,0,0,1-.08-1.18,8.79,8.79,0,0,1,8.81-8.75,8.681,8.681,0,0,1,3.61.77c.31-4.2,4.14-7.51,8.79-7.51a9.281,9.281,0,0,1,3.33.61,8.09,8.09,0,0,1,5.47,7.46v.1a8.944,8.944,0,0,1,.91,0,9.28,9.28,0,0,1,5.48,1.75,7.994,7.994,0,0,1,1.59,1.51A7.6,7.6,0,0,1,94.35,1171.47Z" transform="translate(-821.9 -1522)" fill="none" stroke="#EBA53C" stroke-linecap="round" stroke-linejoin="round" stroke-width="2"/>
      <path id="Path_56" data-name="Path 56" d="M66.95,1179.48s9.47.13,14.56,0c4.61-.12,5.79-4.43,4.61-6.36s-5.41-1.06-4.18,2.37" transform="translate(-821.9 -1522)" fill="none" stroke="#EBA53C" stroke-linecap="round" stroke-linejoin="round" stroke-width="2"/>
      <path id="Path_57" data-name="Path 57" d="M75,1186.24h6.5c2.92,0,4.73,1.7,4.31,3.41" transform="translate(-821.9 -1522)" fill="none" stroke="#EBA53C" stroke-linecap="round" stroke-linejoin="round" stroke-width="2"/>
      <path id="Path_58" data-name="Path 58" d="M74.42,1183.16s7.62-.1,14,0c3.42.05,4.87,2,4.87,3.77a4.62,4.62,0,0,1-2.62,4.17" transform="translate(-821.9 -1522)" fill="none" stroke="#EBA53C" stroke-linecap="round" stroke-linejoin="round" stroke-width="2"/>
    </g>
  </g>
</svg>
