<svg xmlns="http://www.w3.org/2000/svg" width="48" height="48.374" viewBox="0 0 48 48.374">
  <g id="ic_weather_24" transform="translate(574 881)">
    <rect id="Rectangle_7" data-name="Rectangle 7" width="48" height="48" transform="translate(-574 -881)" fill="#ffd2d2" opacity="0"/>
    <g id="Group_40" data-name="Group 40" transform="translate(29.9 -9)">
      <path id="Path_162" data-name="Path 162" d="M296.974,667.271a12.09,12.09,0,0,1-7.645,6.937,7.192,7.192,0,0,0-1.331-2.5,7.687,7.687,0,0,0-1.5-1.425,8.768,8.768,0,0,0-5.172-1.661,8.3,8.3,0,0,0-.859,0v-.094a7.635,7.635,0,0,0-5.172-7.041,8.566,8.566,0,0,0-1.425-.406A12.033,12.033,0,0,1,282.864,651a12,12,0,0,0,14.11,16.271Z" transform="translate(-854.185 -1522)" fill="none" stroke="#EBA53C" stroke-linecap="round" stroke-linejoin="round" stroke-width="2"/>
      <path id="Path_163" data-name="Path 163" d="M211.537,685.9l-3.907,6.474h3.992l-3.992,6.588" transform="translate(-800.535 -1523.962)" fill="none" stroke="#EBA53C" stroke-linecap="round" stroke-linejoin="round" stroke-width="2"/>
      <line id="Line_236" data-name="Line 236" x1="6.031" y2="11.316" transform="translate(-581.155 -838.081)" fill="none" stroke="#EBA53C" stroke-linecap="round" stroke-linejoin="round" stroke-width="2"/>
      <line id="Line_237" data-name="Line 237" x1="5.257" y2="9.721" transform="translate(-587.12 -835.051)" fill="none" stroke="#EBA53C" stroke-linecap="round" stroke-linejoin="round" stroke-width="2"/>
      <path id="Path_164" data-name="Path 164" d="M288.534,676.827c0,4.2-3.775,7.616-8.305,7.616H259.353a8.305,8.305,0,0,1-8.239-7.154,7.275,7.275,0,0,1-.113-1.161,8.3,8.3,0,0,1,8.315-8.268,8.2,8.2,0,0,1,3.407.736c.293-3.964,3.907-7.1,8.3-7.1a8.986,8.986,0,0,1,3.143.576,7.635,7.635,0,0,1,5.172,7.041v.094a8.294,8.294,0,0,1,.859,0,8.768,8.768,0,0,1,5.172,1.661,7.683,7.683,0,0,1,1.5,1.425,7.193,7.193,0,0,1,1.331,2.5A6.9,6.9,0,0,1,288.534,676.827Z" transform="translate(-852.9 -1522.59)" fill="none" stroke="#EBA53C" stroke-linecap="round" stroke-linejoin="round" stroke-width="2"/>
    </g>
  </g>
</svg>
