<svg xmlns="http://www.w3.org/2000/svg" width="48" height="48" viewBox="0 0 48 48">
  <g id="ic_weather_57" transform="translate(280 391)">
    <rect id="Rectangle_7" data-name="Rectangle 7" width="48" height="48" transform="translate(-280 -391)" fill="#ffd2d2" opacity="0"/>
    <g id="Group_70" data-name="Group 70" transform="translate(23.63 -18.57)">
      <path id="Path_115" data-name="Path 115" d="M596.588,1167a12.15,12.15,0,0,1-7.682,6.971,7.227,7.227,0,0,0-1.337-2.513,7.715,7.715,0,0,0-1.508-1.432,8.81,8.81,0,0,0-5.2-1.669,8.375,8.375,0,0,0-.863,0v-.095a7.673,7.673,0,0,0-5.2-7.075,8.618,8.618,0,0,0-1.432-.408,12.093,12.093,0,0,1,9.039-10.205A12.242,12.242,0,0,0,596.588,1167Z" transform="translate(-854.09 -1522)" fill="none" stroke="#EBA53C" stroke-linecap="round" stroke-linejoin="round" stroke-width="2"/>
      <line id="Line_160" data-name="Line 160" y2="0.474" transform="translate(-293.022 -338.376)" fill="none" stroke="#EBA53C" stroke-linecap="round" stroke-linejoin="round" stroke-width="2"/>
      <line id="Line_161" data-name="Line 161" y2="3.367" transform="translate(-293.022 -333.084)" stroke-dasharray="1.02 5.08" stroke="#EBA53C" stroke-linecap="round" stroke-linejoin="round" stroke-width="2" fill="none"/>
      <line id="Line_162" data-name="Line 162" y2="0.474" transform="translate(-293.022 -327.308)" fill="none" stroke="#EBA53C" stroke-linecap="round" stroke-linejoin="round" stroke-width="2"/>
      <line id="Line_163" data-name="Line 163" y2="0.474" transform="translate(-288.668 -335.559)" fill="none" stroke="#EBA53C" stroke-linecap="round" stroke-linejoin="round" stroke-width="2"/>
      <line id="Line_164" data-name="Line 164" y2="2.921" transform="translate(-288.668 -330.912)" stroke-dasharray="0.88 4.4" stroke="#EBA53C" stroke-linecap="round" stroke-linejoin="round" stroke-width="2" fill="none"/>
      <line id="Line_165" data-name="Line 165" y2="0.474" transform="translate(-288.668 -325.904)" fill="none" stroke="#EBA53C" stroke-linecap="round" stroke-linejoin="round" stroke-width="2"/>
      <path id="Path_116" data-name="Path 116" d="M587.952,1176.346c0,4.22-3.794,7.654-8.346,7.654h-20.98a8.346,8.346,0,0,1-8.28-7.189,7.5,7.5,0,0,1-.076-1.119,8.337,8.337,0,0,1,8.356-8.3,8.229,8.229,0,0,1,3.424.73c.294-3.983,3.927-7.123,8.337-7.123a8.8,8.8,0,0,1,3.158.579,7.673,7.673,0,0,1,5.188,7.075v.095a8.481,8.481,0,0,1,.863,0,8.8,8.8,0,0,1,5.2,1.66,7.584,7.584,0,0,1,1.508,1.432,7.209,7.209,0,0,1,1.65,4.505Z" transform="translate(-852.9 -1522.538)" fill="none" stroke="#EBA53C" stroke-linecap="round" stroke-linejoin="round" stroke-width="2"/>
      <path id="Path_117" data-name="Path 117" d="M562.6,1184.81s8.982.123,13.81,0c4.372-.114,5.492-4.2,4.372-6.032s-5.131-1.005-3.965,2.248" transform="translate(-853.535 -1523.405)" fill="none" stroke="#EBA53C" stroke-linecap="round" stroke-linejoin="round" stroke-width="2"/>
      <path id="Path_118" data-name="Path 118" d="M570.66,1191.94h6.165c2.769,0,4.486,1.612,4.088,3.234" transform="translate(-853.951 -1524.132)" fill="none" stroke="#EBA53C" stroke-linecap="round" stroke-linejoin="round" stroke-width="2"/>
      <path id="Path_119" data-name="Path 119" d="M570.08,1188.868s7.227-.095,13.278,0c3.244.047,4.619,1.9,4.619,3.576a4.382,4.382,0,0,1-2.485,3.955" transform="translate(-853.921 -1523.972)" fill="none" stroke="#EBA53C" stroke-linecap="round" stroke-linejoin="round" stroke-width="2"/>
    </g>
  </g>
</svg>
